# xmcd
#
# Track frame offsets: 
#        150
#        22923
#        38048
#        59635
#        77691
#        100038
#        108356
#        130546
#        146131
#        167144
#        177854
#        184006
#        200912
#        206699
#        218463
#        234738
#        249138
#        261307
#        283954
#        303600
#        316071
#        332346
#        342406
#
# Disc length: 4665 seconds
#
# Revision: 0
# Processed by: cddbd v1.5.2PL0 Copyright (c) Steve Scherf et al.
# Submitted via: ExactAudioCopyFreeDBPlugin 1.0
#
DISCID=4d123717
DTITLE=Mephis Slim - Live in Paris
DYEAR=1961
DGENRE=Blues
TTITLE0=Chicago Boogie Woogie
TTITLE1=How Long, How Long Blues
TTITLE2=Beer Drinkin´ Woman
TTITLE3=Pee Wee´s Blues
TTITLE4=Keep Your Hand on Your Heart
TTITLE5=All by Myself
TTITLE6=Miss Ida B
TTITLE7=Shakke Rattle and Roll
TTITLE8=A Letter Home
TTITLE9=Laisse les bons temps router
TTITLE10=Chicago Stomp
TTITLE11=Pigalle Love
TTITLE12=Introduction to Kanas City
TTITLE13=Kansas City Blues (Jim Jackson Style)
TTITLE14=Kansas City Blues (Big Joe Turner Style)
TTITLE15=K.C. Loving (Kansas City)
TTITLE16=Fankie and Jonny
TTITLE17=Unidentified Boogie
TTITLE18=Three Woman Blues
TTITLE19=I Feel So Good
TTITLE20=I Just Want to Make Love to You
TTITLE21=If You See Kay
TTITLE22=Roll 'Em Pete
EXTD=
EXTT0=
EXTT1=
EXTT2=
EXTT3=
EXTT4=
EXTT5=
EXTT6=
EXTT7=
EXTT8=
EXTT9=
EXTT10=
EXTT11=
EXTT12=
EXTT13=
EXTT14=
EXTT15=
EXTT16=
EXTT17=
EXTT18=
EXTT19=
EXTT20=
EXTT21=
EXTT22=
PLAYORDER=
